<svg width="24" height="24" viewBox="0 0 24 24" fill="none" xmlns="http://www.w3.org/2000/svg">
<path d="M12.6985 5.6508C12.6985 2.52995 15.2284 0 18.3493 0C21.4701 0 24.0001 2.52995 24.0001 5.65079C24.0001 8.77164 21.4701 11.3016 18.3493 11.3016H12.6985V5.6508Z" fill="white"/>
<path d="M12.6985 12.5714H18.3493C21.4701 12.5714 24.0001 15.1014 24.0001 18.2222C24.0001 21.3431 21.4701 23.873 18.3493 23.873C15.2284 23.873 12.6985 21.3431 12.6985 18.2222V12.5714Z" fill="white"/>
<path d="M0 5.65079C0 2.52995 2.52995 0 5.65079 0C8.77164 0 11.3016 2.52995 11.3016 5.65079V11.3016H5.6508C2.52995 11.3016 0 8.77164 0 5.65079Z" fill="white"/>
<path d="M1 18.2222C1 15.6536 3.08223 13.5714 5.65079 13.5714H10.3016V18.2222C10.3016 20.7908 8.21935 22.873 5.65079 22.873C3.08223 22.873 1 20.7908 1 18.2222Z" fill="#438625" stroke="white" stroke-width="2"/>
</svg>
