<svg width="40" height="40" viewBox="0 0 40 40" fill="none" xmlns="http://www.w3.org/2000/svg">
<path d="M30.5264 17.5475C30.4599 17.3549 30.339 17.1858 30.1783 17.0606C30.0176 16.9354 29.8241 16.8596 29.6211 16.8422L23.6317 15.9685L20.9474 10.5264C20.8613 10.3484 20.7267 10.1984 20.5591 10.0933C20.3916 9.98832 20.1978 9.93262 20.0001 9.93262C19.8023 9.93262 19.6086 9.98832 19.441 10.0933C19.2735 10.1984 19.1389 10.3484 19.0527 10.5264L16.3685 15.958L10.379 16.8422C10.1842 16.8699 10.0011 16.9516 9.85034 17.0782C9.69963 17.2047 9.58741 17.3709 9.52639 17.558C9.47055 17.7408 9.46554 17.9354 9.5119 18.1208C9.55826 18.3063 9.65424 18.4756 9.78955 18.6106L14.1369 22.8212L13.0843 28.8001C13.0467 28.9974 13.0664 29.2014 13.141 29.3879C13.2156 29.5745 13.342 29.7357 13.5053 29.8527C13.6645 29.9665 13.8523 30.0337 14.0475 30.0467C14.2427 30.0597 14.4377 30.0181 14.6106 29.9264L20.0001 27.1159L25.3685 29.9369C25.5162 30.0203 25.6831 30.0638 25.8527 30.0633C26.0757 30.0641 26.2932 29.994 26.4738 29.8633C26.6371 29.7463 26.7635 29.585 26.8381 29.3985C26.9127 29.2119 26.9324 29.008 26.8948 28.8106L25.8422 22.8317L30.1896 18.6212C30.3415 18.4924 30.4539 18.3232 30.5135 18.1331C30.5731 17.943 30.5776 17.74 30.5264 17.5475ZM24.0527 21.758C23.9293 21.8774 23.8369 22.0252 23.7837 22.1885C23.7305 22.3518 23.718 22.5256 23.7474 22.6948L24.5053 27.1054L20.5474 25.0001C20.3951 24.919 20.2253 24.8766 20.0527 24.8766C19.8802 24.8766 19.7103 24.919 19.558 25.0001L15.6001 27.1054L16.358 22.6948C16.3874 22.5256 16.3749 22.3518 16.3217 22.1885C16.2685 22.0252 16.1762 21.8774 16.0527 21.758L12.8948 18.6001L17.3264 17.958C17.4969 17.9343 17.659 17.8691 17.7985 17.7682C17.938 17.6672 18.0506 17.5336 18.1264 17.379L20.0001 13.3685L21.979 17.3896C22.0549 17.5441 22.1674 17.6777 22.3069 17.7787C22.4464 17.8796 22.6085 17.9448 22.779 17.9685L27.2106 18.6106L24.0527 21.758Z" fill="#004FAC"/>
<circle cx="20" cy="20" r="19" stroke="#004FAC" stroke-width="2"/>
<circle cx="20" cy="20" r="19" stroke="#004FAC" stroke-width="2"/>
</svg>
