<svg width="22" height="22" viewBox="0 0 22 22" fill="none" xmlns="http://www.w3.org/2000/svg">
<path d="M13.4779 3.2977L13.6884 2.98251L13.895 2.67155L14.3603 1.97382C14.4173 1.888 14.3942 1.77255 14.3091 1.7152C14.2226 1.65786 14.1071 1.68095 14.0498 1.76716L13.5514 2.5153L13.3416 2.82972L13.1288 3.14838C12.4546 2.88706 11.703 2.74044 10.909 2.74044C10.1158 2.74044 9.36423 2.88706 8.68998 3.14838L8.47831 2.82972L8.26857 2.5153L7.76942 1.76677C7.71247 1.68095 7.59663 1.65786 7.51042 1.71482C7.42498 1.77178 7.40189 1.88761 7.45885 1.97344L7.92375 2.67116L8.13118 2.98212L8.34169 3.29731C6.75804 4.03468 5.68701 5.43168 5.68701 7.03072H16.1326C16.1326 5.43206 15.0615 4.03507 13.4779 3.2977ZM8.67151 5.53867C8.3617 5.53867 8.11155 5.28813 8.11155 4.9791C8.11155 4.67006 8.3617 4.41991 8.67151 4.41991C8.98054 4.41991 9.23069 4.67006 9.23069 4.9791C9.23069 5.28813 8.98054 5.53867 8.67151 5.53867ZM13.1477 5.53867C12.8386 5.53867 12.5885 5.28813 12.5885 4.9791C12.5885 4.67006 12.8386 4.41991 13.1477 4.41991C13.4575 4.41991 13.7076 4.67006 13.7076 4.9791C13.7076 5.28813 13.4575 5.53867 13.1477 5.53867Z" fill="#1565D8"/>
<path d="M5.76744 7.77734H5.68701V8.70791V9.46721V15.985C5.68701 16.6365 6.21656 17.1665 6.86811 17.1665H7.72093C7.69245 17.265 7.67629 17.3693 7.67629 17.4771V17.5394V17.9123V19.8404C7.67629 20.4581 8.17775 20.9595 8.79581 20.9595C9.41388 20.9595 9.91495 20.4581 9.91495 19.8404V17.9123V17.5394V17.4771C9.91495 17.3697 9.8984 17.265 9.87069 17.1665H11.9489C11.9204 17.265 11.9046 17.3693 11.9046 17.4771V17.5394V17.9123V19.8404C11.9046 20.4581 12.4061 20.9595 13.0238 20.9595C13.6414 20.9595 14.1429 20.4581 14.1429 19.8404V17.9123V17.5394V17.4771C14.1429 17.3697 14.1271 17.265 14.0986 17.1665H14.9511C15.6026 17.1665 16.1326 16.6365 16.1326 15.985V9.46721V8.70791V7.77734H16.0521H5.76744Z" fill="#1565D8"/>
<path d="M3.82129 7.77734C3.20322 7.77734 2.70215 8.27803 2.70215 8.89687V13.684C2.70215 14.3017 3.20322 14.8031 3.82129 14.8031C4.43897 14.8031 4.94042 14.3017 4.94042 13.684V8.89648C4.94042 8.27803 4.43935 7.77734 3.82129 7.77734Z" fill="#1565D8"/>
<path d="M17.9985 7.77734C17.3801 7.77734 16.8794 8.27803 16.8794 8.89687V13.684C16.8794 14.3017 17.3801 14.8031 17.9985 14.8031C18.6162 14.8031 19.1169 14.3017 19.1169 13.684V8.89648C19.1169 8.27803 18.6162 7.77734 17.9985 7.77734Z" fill="#1565D8"/>
</svg>
