<svg width="96" height="96" viewBox="0 0 96 96" fill="none" xmlns="http://www.w3.org/2000/svg">
<circle cx="48" cy="48" r="47.75" fill="white"/>
<circle cx="48" cy="48" r="47.75" fill="#204FA0" fill-opacity="0.06"/>
<circle cx="48" cy="48" r="47.75" stroke="#E4E4E4" stroke-width="0.5"/>
<path d="M54.6667 31.2834H41.3333C34.6667 31.2834 31.3333 34.6168 31.3333 41.2834V49.6168C31.3333 57.9501 34.6667 59.6168 41.3333 59.6168H42.1667C42.6333 59.6168 43.2333 59.9168 43.5 60.2834L46 63.6168C47.1 65.0834 48.9 65.0834 50 63.6168L52.5 60.2834C52.8167 59.8668 53.3167 59.6168 53.8333 59.6168H54.6667C61.3333 59.6168 64.6667 56.2834 64.6667 49.6168V41.2834C64.6667 34.6168 61.3333 31.2834 54.6667 31.2834ZM42.2167 48.2834C42.7 48.7668 42.7 49.5668 42.2167 50.0501C41.9667 50.3001 41.65 50.4168 41.3333 50.4168C41.0167 50.4168 40.7 50.3001 40.45 50.0501L37.1167 46.7168C36.6333 46.2334 36.6333 45.4334 37.1167 44.9501L40.45 41.6168C40.9333 41.1334 41.7333 41.1334 42.2167 41.6168C42.7 42.1001 42.7 42.9001 42.2167 43.3834L39.7667 45.8334L42.2167 48.2834ZM50.8167 42.4334L47.4833 50.2168C47.2833 50.6834 46.8167 50.9668 46.3333 50.9668C46.1667 50.9668 46 50.9334 45.8333 50.8668C45.2 50.6001 44.9 49.8668 45.1833 49.2168L48.5167 41.4334C48.7833 40.8001 49.5167 40.5001 50.1667 40.7834C50.8 41.0668 51.0833 41.8001 50.8167 42.4334ZM58.8833 46.7168L55.55 50.0501C55.3 50.3001 54.9833 50.4168 54.6667 50.4168C54.35 50.4168 54.0333 50.3001 53.7833 50.0501C53.3 49.5668 53.3 48.7668 53.7833 48.2834L56.2333 45.8334L53.7833 43.3834C53.3 42.9001 53.3 42.1001 53.7833 41.6168C54.2667 41.1334 55.0667 41.1334 55.55 41.6168L58.8833 44.9501C59.3667 45.4334 59.3667 46.2334 58.8833 46.7168Z" fill="#204FA0"/>
</svg>
