<svg width="96" height="96" viewBox="0 0 96 96" fill="none" xmlns="http://www.w3.org/2000/svg">
<circle cx="48" cy="48" r="47.75" fill="white"/>
<circle cx="48" cy="48" r="47.75" fill="#204FA0" fill-opacity="0.06"/>
<circle cx="48" cy="48" r="47.75" stroke="#E4E4E4" stroke-width="0.5"/>
<path d="M40.7547 33.9295C41.0365 33.7814 41.3333 34.0167 41.3333 34.335V57.2227C41.3333 57.446 41.1833 57.6377 40.9775 57.7243C40.8861 57.7627 40.7997 57.8046 40.7167 57.8499L36.8 60.0832C34.0667 61.6499 31.8167 60.3499 31.8167 57.1832V40.9666C31.8167 39.9166 32.5667 38.6166 33.5 38.0832L40.7167 33.9499C40.7293 33.943 40.742 33.9362 40.7547 33.9295Z" fill="#204FA0"/>
<path d="M52.7219 38.2623C52.8922 38.3466 53 38.5202 53 38.7103V61.3697C53 61.7382 52.615 61.9801 52.283 61.8202L44.533 58.0863C44.36 58.003 44.25 57.8279 44.25 57.6359V34.8722C44.25 34.5014 44.6396 34.2596 44.9719 34.4242L52.7219 38.2623Z" fill="#204FA0"/>
<path d="M64.6667 38.8166V55.0333C64.6667 56.0833 63.9167 57.3833 62.9833 57.9166L56.6653 61.5376C56.3319 61.7286 55.9167 61.488 55.9167 61.1038V38.3569C55.9167 38.1774 56.0129 38.0117 56.1688 37.9227L59.6833 35.9166C62.4167 34.3499 64.6667 35.6499 64.6667 38.8166Z" fill="#204FA0"/>
</svg>
