<svg width="96" height="96" viewBox="0 0 96 96" fill="none" xmlns="http://www.w3.org/2000/svg">
<circle cx="48" cy="48" r="47.75" fill="white"/>
<circle cx="48" cy="48" r="47.75" fill="#204FA0" fill-opacity="0.06"/>
<circle cx="48" cy="48" r="47.75" stroke="#E4E4E4" stroke-width="0.5"/>
<path d="M53.9833 31.3333H40.0167C33.95 31.3333 30.3333 34.9499 30.3333 41.0166V54.9666C30.3333 61.0499 33.95 64.6666 40.0167 64.6666H53.9667C60.0333 64.6666 63.65 61.0499 63.65 54.9833V41.0166C63.6667 34.9499 60.05 31.3333 53.9833 31.3333ZM55.3333 56.7499H38.6667C37.9833 56.7499 37.4167 56.1833 37.4167 55.4999C37.4167 54.8166 37.9833 54.2499 38.6667 54.2499H55.3333C56.0167 54.2499 56.5833 54.8166 56.5833 55.4999C56.5833 56.1833 56.0167 56.7499 55.3333 56.7499ZM55.3333 49.2499H38.6667C37.9833 49.2499 37.4167 48.6833 37.4167 47.9999C37.4167 47.3166 37.9833 46.7499 38.6667 46.7499H55.3333C56.0167 46.7499 56.5833 47.3166 56.5833 47.9999C56.5833 48.6833 56.0167 49.2499 55.3333 49.2499ZM55.3333 41.7499H38.6667C37.9833 41.7499 37.4167 41.1833 37.4167 40.4999C37.4167 39.8166 37.9833 39.2499 38.6667 39.2499H55.3333C56.0167 39.2499 56.5833 39.8166 56.5833 40.4999C56.5833 41.1833 56.0167 41.7499 55.3333 41.7499Z" fill="#204FA0"/>
</svg>
