<svg width="96" height="96" viewBox="0 0 96 96" fill="none" xmlns="http://www.w3.org/2000/svg">
<circle cx="48" cy="48" r="47.75" fill="white"/>
<circle cx="48" cy="48" r="47.75" fill="#204FA0" fill-opacity="0.06"/>
<circle cx="48" cy="48" r="47.75" stroke="#E4E4E4" stroke-width="0.5"/>
<path d="M24.28 57C23.816 57 23.488 56.904 23.296 56.712C23.12 56.52 23.032 56.216 23.032 55.8V41.88C23.032 41.464 23.128 41.16 23.32 40.968C23.512 40.776 23.84 40.68 24.304 40.68H26.2C26.488 40.68 26.712 40.72 26.872 40.8C27.048 40.88 27.216 41.04 27.376 41.28L32.92 49.248V41.904C32.92 41.488 33.016 41.184 33.208 40.992C33.4 40.784 33.72 40.68 34.168 40.68H36.496C36.96 40.68 37.288 40.784 37.48 40.992C37.672 41.184 37.768 41.488 37.768 41.904V55.824C37.768 56.24 37.672 56.544 37.48 56.736C37.288 56.912 36.96 57 36.496 57H34.6C34.296 57 34.064 56.968 33.904 56.904C33.744 56.824 33.584 56.664 33.424 56.424L27.88 48.456V55.824C27.88 56.24 27.784 56.544 27.592 56.736C27.4 56.912 27.072 57 26.608 57H24.28ZM41.0847 57C40.6207 57 40.2927 56.904 40.1007 56.712C39.9247 56.52 39.8367 56.216 39.8367 55.8V41.904C39.8367 41.488 39.9327 41.184 40.1247 40.992C40.3167 40.784 40.6367 40.68 41.0847 40.68H51.0447C51.4927 40.68 51.7967 40.776 51.9567 40.968C52.1167 41.144 52.1967 41.448 52.1967 41.88V42.984C52.1967 43.416 52.1167 43.728 51.9567 43.92C51.7967 44.096 51.4927 44.184 51.0447 44.184H44.6847V47.112H48.8847C49.3327 47.112 49.6367 47.208 49.7967 47.4C49.9727 47.576 50.0607 47.88 50.0607 48.312V49.368C50.0607 49.8 49.9727 50.112 49.7967 50.304C49.6367 50.48 49.3327 50.568 48.8847 50.568H44.6847V53.52H51.0207C51.4687 53.52 51.7727 53.616 51.9327 53.808C52.0927 53.984 52.1727 54.288 52.1727 54.72V55.824C52.1727 56.24 52.0927 56.544 51.9327 56.736C51.7727 56.912 51.4687 57 51.0207 57H41.0847ZM57.5401 57C57.2201 57 56.9641 56.944 56.7721 56.832C56.5961 56.704 56.4761 56.496 56.4121 56.208L52.7641 41.4C52.7481 41.336 52.7401 41.248 52.7401 41.136C52.7401 40.832 52.9401 40.68 53.3401 40.68H56.7241C57.0121 40.68 57.2121 40.728 57.3241 40.824C57.4521 40.92 57.5321 41.072 57.5641 41.28L59.0041 48.624L60.9241 42.6C61.0041 42.344 61.1081 42.168 61.2361 42.072C61.3641 41.976 61.5721 41.928 61.8601 41.928H63.4681C63.7561 41.928 63.9641 41.976 64.0921 42.072C64.2361 42.168 64.3481 42.344 64.4281 42.6L66.3481 48.624L67.7641 41.28C67.7961 41.072 67.8761 40.92 68.0041 40.824C68.1321 40.728 68.3401 40.68 68.6281 40.68H72.0121C72.4281 40.68 72.6361 40.832 72.6361 41.136C72.6361 41.248 72.6281 41.336 72.6121 41.4L68.9161 56.208C68.8521 56.496 68.7321 56.704 68.5561 56.832C68.3801 56.944 68.1321 57 67.8121 57H65.6281C65.3081 57 65.0601 56.944 64.8841 56.832C64.7241 56.704 64.6041 56.496 64.5241 56.208L62.6761 49.896L60.8281 56.208C60.7481 56.496 60.6201 56.704 60.4441 56.832C60.2681 56.944 60.0281 57 59.7241 57H57.5401Z" fill="#204FA0"/>
</svg>
