<svg width="22" height="12" viewBox="0 0 22 12" fill="none" xmlns="http://www.w3.org/2000/svg">
<path d="M8.469 0C7.60947 0 6.87633 0.176965 6.16848 0.53089C4.32301 1.44099 3.26123 3.38758 3.26123 5.8145C3.26123 8.24142 4.29773 10.1375 6.14321 10.997C6.64881 11.2245 7.15442 11.3509 7.91284 11.452C8.29204 11.4773 8.64597 11.5026 9.02517 11.452C9.78359 11.3509 10.2892 11.2245 10.7948 10.997C12.6403 10.1122 13.6768 8.24142 13.6768 5.8145C13.6768 3.38758 12.615 1.44099 10.7695 0.53089C10.0364 0.176965 9.30325 0 8.469 0ZM9.20213 1.71907C10.3145 2.02243 11.0982 3.00837 11.4268 4.47463C11.6543 5.48585 11.5785 6.67403 11.2751 7.60941C10.7948 9.05039 9.7583 9.88465 8.469 9.85937C7.20498 9.88465 6.1432 9.05039 5.66287 7.60941C5.35951 6.67403 5.28367 5.51113 5.51119 4.47463C5.81456 3.00837 6.62353 2.02243 7.73587 1.71907C8.2162 1.61795 8.7218 1.61795 9.20213 1.71907Z" fill="#1565D8"/>
<path d="M1.11234 0C0.505607 0 0 0.505607 0 1.11234C0 1.71907 0.505607 2.22468 1.11234 2.22468C1.71907 2.22468 2.22468 1.71907 2.22468 1.11234C2.22468 0.505607 1.71907 0 1.11234 0ZM0.0758459 3.3623V11.4773H2.14884V3.3623H0.0758459Z" fill="#1565D8"/>
<path d="M16.6597 11.4769C15.7749 11.3252 14.9154 11.1988 14.2075 10.7943C14.2075 10.7943 14.6373 9.15111 14.6626 9.12583C15.8255 9.53032 17.4687 10.0612 18.5557 9.5556C19.1625 9.25223 19.4406 8.69606 19.3647 8.06405C19.2636 7.33092 18.758 6.92643 17.3929 6.42082C15.876 5.83937 14.9659 5.1568 14.612 4.24671C14.435 3.79166 14.3845 3.23549 14.4603 2.72988C14.6878 1.33946 15.7749 0.378801 17.4181 0.0754357C17.8985 -0.000405639 18.935 -0.000405639 19.4406 0.0754357C20.1737 0.201838 21.008 0.479923 21.008 0.581044C21.008 0.631605 20.5782 2.12315 20.5529 2.17371C19.8198 1.89563 19.0361 1.69338 18.3282 1.6681C17.3676 1.64282 16.3058 2.22427 16.4828 3.23549C16.6092 3.8675 17.0136 4.17086 18.5052 4.77759C19.6175 5.23264 20.1231 5.53601 20.5782 5.99106C21.2102 6.62307 21.4124 7.3562 21.4124 8.08933C21.4124 8.69606 21.3619 8.97415 21.1344 9.45447C20.6035 10.5921 19.5417 11.2494 17.9237 11.4263C17.6204 11.4769 16.9125 11.5022 16.6597 11.4769Z" fill="#1565D8"/>
</svg>
