<svg width="22" height="22" viewBox="0 0 22 22" fill="none" xmlns="http://www.w3.org/2000/svg">
<path d="M11 1C5.48594 1 1 5.48599 1 11C1 16.514 5.48594 21 11 21C16.514 21 20.9999 16.5141 20.9999 11C20.9999 5.48599 16.5141 1 11 1ZM9.45741 2.01607C8.64569 2.71098 7.86859 3.57609 7.24429 4.497C6.96314 4.91177 6.71036 5.34005 6.4859 5.7793H3.5325C4.90127 3.82722 7.01487 2.4342 9.45741 2.01607ZM10.5575 15.429H7.05516C6.52813 14.2868 6.16416 12.9691 6.10304 11.489H10.5575V15.429ZM2.98376 6.66417H6.07856C5.56215 7.92027 5.26991 9.24994 5.21764 10.6042H1.89407C1.95507 9.1831 2.34241 7.84517 2.98376 6.66417ZM1.89808 11.4891H5.21729C5.2682 12.8646 5.55755 14.1821 6.0811 15.4291H3.03579C2.37798 14.2509 1.97371 12.9129 1.89808 11.4891ZM3.59857 16.3139H6.4984C6.71956 16.7356 6.96845 17.1486 7.24588 17.552C7.98198 18.6223 8.77317 19.4184 9.44142 19.9812C7.04478 19.5666 4.96593 18.2129 3.59857 16.3139ZM10.5575 19.7349C9.5692 19.0111 8.40571 17.8567 7.51429 16.3139H10.5575V19.7349ZM10.5575 10.6042H6.10304C6.15814 9.22852 6.47109 7.9103 7.03711 6.66417H10.5576V10.6042H10.5575ZM10.5575 5.7793H7.48845C7.63924 5.51372 7.8017 5.25168 7.97667 4.99353C8.88761 3.64971 9.88616 2.76974 10.5575 2.27109V5.7793ZM20.106 10.6042H16.7824C16.7301 9.24994 16.4378 7.92027 15.9214 6.66417H19.0162C19.6575 7.84517 20.045 9.1831 20.106 10.6042ZM18.4676 5.7793H15.5142C15.2898 5.34005 15.0369 4.91177 14.7558 4.497C14.1315 3.57603 13.3542 2.71116 12.5424 2.01601C14.985 2.43414 17.0986 3.82716 18.4676 5.7793ZM11.4424 2.27103C12.1138 2.76968 13.1123 3.64965 14.0233 4.99348C14.1982 5.25162 14.3607 5.51366 14.5115 5.77924H11.4424V2.27103ZM11.4424 6.66417H14.9629C15.5289 7.9103 15.8419 9.22852 15.897 10.6042H11.4424V6.66417ZM11.4424 11.4891H15.897C15.8359 12.9692 15.4719 14.2868 14.9448 15.4291H11.4424V11.4891ZM11.4424 16.3139H14.4856C13.5942 17.8566 12.4307 19.0111 11.4424 19.7349V16.3139ZM12.5588 19.9812C13.227 19.4184 14.0181 18.6222 14.7541 17.5521C15.0316 17.1487 15.2804 16.7357 15.5016 16.314H18.4014C17.0341 18.2128 14.9553 19.5665 12.5588 19.9812ZM18.9642 15.429H15.919C16.4425 14.182 16.7319 12.8646 16.7828 11.489H20.1019C20.0262 12.9129 19.622 14.2509 18.9642 15.429Z" fill="#1565D8" stroke="#1565D8" stroke-width="0.5"/>
</svg>
